<svg width="24" height="24" viewBox="0 0 24 24" fill="none" xmlns="http://www.w3.org/2000/svg">
<g clip-path="url(#clip0_227_598)">
<path d="M20.8068 0H3.19184C2.66309 0 2.23438 0.428672 2.23438 0.957469V23.0426C2.23438 23.5713 2.66305 24 3.19184 24H15.893C16.1469 24 16.3904 23.8992 16.5699 23.7196L21.4838 18.8057C21.6633 18.6262 21.7642 18.3827 21.7642 18.1287V0.957469C21.7643 0.428672 21.3357 0 20.8068 0ZM11.4514 18.0092H10.0168V19.4437C10.0168 19.9725 9.58817 20.4012 9.05937 20.4012C8.53058 20.4012 8.10191 19.9725 8.10191 19.4437V18.0092H6.66734C6.13859 18.0092 5.70987 17.5805 5.70987 17.0517C5.70987 16.5229 6.13855 16.0942 6.66734 16.0942H8.10191V14.6597C8.10191 14.1309 8.53058 13.7022 9.05937 13.7022C9.58817 13.7022 10.0168 14.1309 10.0168 14.6597V16.0942H11.4514C11.9801 16.0942 12.4088 16.5229 12.4088 17.0517C12.4088 17.5805 11.9802 18.0092 11.4514 18.0092ZM11.6164 11.679H6.66744C6.13869 11.679 5.70997 11.2504 5.70997 10.7216C5.70997 10.1928 6.13864 9.76411 6.66744 9.76411H11.6164C12.1451 9.76411 12.5738 10.1928 12.5738 10.7216C12.5738 11.2504 12.1451 11.679 11.6164 11.679ZM17.3312 8.74073H6.66744C6.13869 8.74073 5.70997 8.31206 5.70997 7.78331C5.70997 7.25456 6.13864 6.82584 6.66744 6.82584H17.3312C17.86 6.82584 18.2887 7.25452 18.2887 7.78331C18.2887 8.31211 17.86 8.74073 17.3312 8.74073ZM17.3312 5.80233H6.66744C6.13869 5.80233 5.70997 5.37366 5.70997 4.84486C5.70997 4.31606 6.13864 3.88739 6.66744 3.88739H17.3312C17.86 3.88739 18.2887 4.31606 18.2887 4.84486C18.2887 5.37366 17.86 5.80233 17.3312 5.80233Z" fill="#1E62A0"/>
</g>
<defs>
<clipPath id="clip0_227_598">
<rect width="24" height="24" fill="white"/>
</clipPath>
</defs>
</svg>
