<svg width="300" height="46" viewBox="0 0 300 46" fill="none" xmlns="http://www.w3.org/2000/svg">
<rect width="300" height="46" fill="white"/>
<rect x="55" y="22" width="76" height="2" rx="1" fill="#336CFB"/>
<rect x="168" y="22" width="76" height="2" rx="1" fill="#C7C8CB"/>
<circle cx="37" cy="23" r="14" fill="#336CFB"/>
<circle cx="37" cy="23" r="12" fill="white"/>
<path d="M37.3965 18.4219V27H36.3125V19.7754L34.127 20.5723V19.5938L37.2266 18.4219H37.3965Z" fill="#336CFB"/>
<circle cx="150" cy="23" r="14" fill="#C7C8CB"/>
<circle cx="150" cy="23" r="12" fill="white"/>
<path d="M153.424 26.1094V27H147.84V26.2207L150.635 23.1094C150.979 22.7266 151.244 22.4023 151.432 22.1367C151.623 21.8672 151.756 21.627 151.83 21.416C151.908 21.2012 151.947 20.9824 151.947 20.7598C151.947 20.4785 151.889 20.2246 151.771 19.998C151.658 19.7676 151.49 19.584 151.268 19.4473C151.045 19.3105 150.775 19.2422 150.459 19.2422C150.08 19.2422 149.764 19.3164 149.51 19.4648C149.26 19.6094 149.072 19.8125 148.947 20.0742C148.822 20.3359 148.76 20.6367 148.76 20.9766H147.676C147.676 20.4961 147.781 20.0566 147.992 19.6582C148.203 19.2598 148.516 18.9434 148.93 18.709C149.344 18.4707 149.854 18.3516 150.459 18.3516C150.998 18.3516 151.459 18.4473 151.842 18.6387C152.225 18.8262 152.518 19.0918 152.721 19.4355C152.928 19.7754 153.031 20.1738 153.031 20.6309C153.031 20.8809 152.988 21.1348 152.902 21.3926C152.82 21.6465 152.705 21.9004 152.557 22.1543C152.412 22.4082 152.242 22.6582 152.047 22.9043C151.855 23.1504 151.65 23.3926 151.432 23.6309L149.146 26.1094H153.424Z" fill="#C7C8CB"/>
<circle cx="263" cy="23" r="14" fill="#C7C8CB"/>
<circle cx="263" cy="23" r="12" fill="white"/>
<path d="M262.416 22.2012H263.189C263.568 22.2012 263.881 22.1387 264.127 22.0137C264.377 21.8848 264.562 21.7109 264.684 21.4922C264.809 21.2695 264.871 21.0195 264.871 20.7422C264.871 20.4141 264.816 20.1387 264.707 19.916C264.598 19.6934 264.434 19.5254 264.215 19.4121C263.996 19.2988 263.719 19.2422 263.383 19.2422C263.078 19.2422 262.809 19.3027 262.574 19.4238C262.344 19.541 262.162 19.709 262.029 19.9277C261.9 20.1465 261.836 20.4043 261.836 20.7012H260.752C260.752 20.2676 260.861 19.873 261.08 19.5176C261.299 19.1621 261.605 18.8789 262 18.668C262.398 18.457 262.859 18.3516 263.383 18.3516C263.898 18.3516 264.35 18.4434 264.736 18.627C265.123 18.8066 265.424 19.0762 265.639 19.4355C265.854 19.791 265.961 20.2344 265.961 20.7656C265.961 20.9805 265.91 21.2109 265.809 21.457C265.711 21.6992 265.557 21.9258 265.346 22.1367C265.139 22.3477 264.869 22.5215 264.537 22.6582C264.205 22.791 263.807 22.8574 263.342 22.8574H262.416V22.2012ZM262.416 23.0918V22.4414H263.342C263.885 22.4414 264.334 22.5059 264.689 22.6348C265.045 22.7637 265.324 22.9355 265.527 23.1504C265.734 23.3652 265.879 23.6016 265.961 23.8594C266.047 24.1133 266.09 24.3672 266.09 24.6211C266.09 25.0195 266.021 25.373 265.885 25.6816C265.752 25.9902 265.562 26.252 265.316 26.4668C265.074 26.6816 264.789 26.8438 264.461 26.9531C264.133 27.0625 263.775 27.1172 263.389 27.1172C263.018 27.1172 262.668 27.0645 262.34 26.959C262.016 26.8535 261.729 26.7012 261.479 26.502C261.229 26.2988 261.033 26.0508 260.893 25.7578C260.752 25.4609 260.682 25.123 260.682 24.7441H261.766C261.766 25.041 261.83 25.3008 261.959 25.5234C262.092 25.7461 262.279 25.9199 262.521 26.0449C262.768 26.166 263.057 26.2266 263.389 26.2266C263.721 26.2266 264.006 26.1699 264.244 26.0566C264.486 25.9395 264.672 25.7637 264.801 25.5293C264.934 25.2949 265 25 265 24.6445C265 24.2891 264.926 23.998 264.777 23.7715C264.629 23.541 264.418 23.3711 264.145 23.2617C263.875 23.1484 263.557 23.0918 263.189 23.0918H262.416Z" fill="#C7C8CB"/>
</svg>
