<svg width="60" height="76" viewBox="0 0 60 76" fill="none" xmlns="http://www.w3.org/2000/svg">
<path d="M53.282 55.585C52.156 55.192 50.992 55.14 49.866 55.424C49.512 55.511 49.157 55.418 48.903 55.159L47.497 53.738C47.102 53.339 46.978 52.633 47.197 52.025C47.597 50.918 47.928 49.76 48.18 48.586C48.426 47.441 49.441 46.711 50.291 47.121C52.143 48.021 54.22 47.886 55.995 46.732C59.219 44.638 60.642 39.534 59.168 35.353C58.048 32.183 55.547 30.133 52.791 30.133C51.778 30.133 50.794 30.407 49.868 30.946C49.556 31.128 49.217 31.39 48.833 31.744C47.971 32.54 46.799 32.24 46.257 31.098C45.685 29.892 44.997 28.814 44.303 27.728C43.67 26.735 43.562 25.356 44.028 24.219L45.501 20.615C45.92 19.589 46.673 18.891 47.468 18.792C48.207 18.7 48.939 18.448 49.643 18.041C51.883 16.75 53.453 14.109 53.74 11.149C53.985 8.631 53.367 6.10499 52.045 4.22099C50.487 1.99999 48.105 0.917996 45.755 1.355C42.807 1.907 40.416 4.883 39.941 8.591C39.722 10.296 39.892 12.018 40.433 13.569C40.791 14.597 40.792 15.688 40.436 16.56L39.283 19.383C38.702 20.802 37.35 21.562 36.19 21.108C35.135 20.693 33.377 20.412 32.087 20.248C31.726 20.203 31.426 19.874 31.343 19.431L30.208 13.399C30.145 13.067 30.225 12.709 30.425 12.416C31.626 10.669 32.115 8.35699 31.767 6.06799C31.319 3.13799 29.47 0.764994 27.167 0.162994C26.745 0.0549944 26.32 0 25.9 0C22.603 0 19.922 3.379 19.922 7.533C19.922 10.653 21.486 13.482 23.815 14.571C24.142 14.724 24.368 15.013 24.434 15.364L25.343 20.201C25.442 20.727 25.2 21.267 24.782 21.458C23.44 22.066 22.16 22.878 20.975 23.867C20.542 24.23 19.902 24.219 19.521 23.831C19.007 23.306 19.033 22.508 19.209 21.985C19.949 19.795 20.117 17.381 19.692 15C18.927 10.716 16.111 7.29199 12.685 6.48199C9.42698 5.71299 6.12396 7.21401 4.04796 10.376C2.33696 12.979 1.64797 16.408 2.15697 19.781C2.83597 24.291 5.70397 27.87 9.29497 28.69C10.808 29.031 12.34 28.903 13.759 28.314C14.187 28.132 14.696 28.347 14.996 28.818L15.395 29.442C15.705 29.93 15.74 30.597 15.482 31.142C14.205 33.84 13.403 36.788 13.099 39.902C13.033 40.572 12.624 41.081 12.106 41.14L10.131 41.358C9.83497 41.358 9.53097 41.184 9.27397 40.866C8.33697 39.715 7.145 39.047 5.825 38.934C3.615 38.76 1.51999 40.288 0.569994 42.746C-0.164006 44.649 -0.191037 46.824 0.500963 48.715C1.19396 50.605 2.50601 51.989 4.10301 52.511C6.37501 53.253 8.86898 51.979 10.107 49.473C10.285 49.111 10.636 48.869 11.044 48.821L12.767 48.633C13.244 48.633 13.665 49.03 13.817 49.621C14.515 52.352 15.611 54.866 17.076 57.094C17.241 57.344 17.231 57.722 17.051 57.973C16.845 58.261 16.606 58.214 16.412 58.14C15.582 57.805 14.714 57.684 13.814 57.793C10.851 58.148 8.41699 61.097 8.02599 64.805C7.77699 67.159 8.33997 69.523 9.57097 71.292C11.078 73.463 13.423 74.476 15.712 73.925C18.021 73.37 19.953 71.164 20.636 68.304C20.947 66.994 21.001 65.667 20.797 64.359C20.767 64.168 20.817 63.96 20.928 63.804L21.71 62.709C21.872 62.483 22.149 62.414 22.349 62.55C22.864 62.904 23.401 63.229 23.943 63.516C24.604 63.867 25.001 64.776 24.93 65.775C24.868 66.64 24.911 67.522 25.058 68.39C25.671 72.064 28.172 74.901 31.139 75.286C31.387 75.317 31.634 75.334 31.877 75.334C35.722 75.334 38.85 71.39 38.85 66.545C38.85 65.995 38.808 65.441 38.727 64.896C38.57 63.874 38.894 62.916 39.552 62.457C40.586 61.733 41.565 60.88 42.463 59.919C42.784 59.576 43.167 59.421 43.458 59.514C43.906 59.655 44.127 59.988 44.233 60.241C44.382 60.597 44.402 61.029 44.288 61.423C43.84 62.959 43.72 64.64 43.939 66.284C44.474 70.276 47.074 73.445 50.263 73.99C50.608 74.049 50.958 74.078 51.303 74.078C53.406 74.078 55.423 72.953 56.838 70.988C58.27 68.998 58.946 66.418 58.739 63.725C58.443 59.881 56.25 56.611 53.282 55.585ZM49.809 37.667C50.358 37.667 50.805 38.229 50.805 38.922C50.805 39.615 50.358 40.178 49.809 40.178C49.259 40.178 48.812 39.615 48.812 38.922C48.812 38.229 49.259 37.667 49.809 37.667ZM38.85 26.367C39.4 26.367 39.846 26.929 39.846 27.622C39.846 28.315 39.4 28.878 38.85 28.878C38.3 28.878 37.854 28.315 37.854 27.622C37.854 26.929 38.3 26.367 38.85 26.367ZM33.869 31.389C34.419 31.389 34.865 31.952 34.865 32.645C34.865 33.338 34.419 33.9 33.869 33.9C33.319 33.9 32.873 33.338 32.873 32.645C32.873 31.952 33.319 31.389 33.869 31.389ZM22.911 48.967C22.361 48.967 21.915 48.404 21.915 47.711C21.915 47.018 22.361 46.456 22.911 46.456C23.461 46.456 23.907 47.018 23.907 47.711C23.907 48.404 23.461 48.967 22.911 48.967ZM23.907 41.434C21.709 41.434 19.922 39.181 19.922 36.411C19.922 33.642 21.709 31.389 23.907 31.389C26.105 31.389 27.892 33.642 27.892 36.411C27.892 39.181 26.105 41.434 23.907 41.434ZM31.877 61.523C28.58 61.523 25.9 58.144 25.9 53.989C25.9 49.834 28.58 46.456 31.877 46.456C35.173 46.456 37.854 49.834 37.854 53.989C37.854 58.144 35.172 61.523 31.877 61.523ZM42.835 52.734C42.285 52.734 41.839 52.171 41.839 51.478C41.839 50.785 42.285 50.222 42.835 50.222C43.385 50.222 43.831 50.785 43.831 51.478C43.831 52.171 43.385 52.734 42.835 52.734ZM40.843 45.2C38.645 45.2 36.858 42.948 36.858 40.178C36.858 37.408 38.645 35.156 40.843 35.156C43.04 35.156 44.827 37.408 44.827 40.178C44.827 42.948 43.04 45.2 40.843 45.2Z" fill="#A5D3CD"/>
</svg>
