<svg width="64" height="75" viewBox="0 0 64 75" fill="none" xmlns="http://www.w3.org/2000/svg">
<path d="M35.676 66.56C33.478 69.072 30.35 69.069 28.151 66.558C27.578 65.903 26.952 65.172 26.271 64.378C25.816 63.846 25.332 63.281 24.817 62.684C14.849 51.126 4.154 34.212 4.032 21.406C3.991 17.025 5.157 13.453 7.597 10.484C10.77 6.62501 14.91 4.49902 19.255 4.49902C23.524 4.49902 27.583 6.527 30.686 10.211C31.375 11.029 32.453 11.029 33.142 10.211C36.246 6.527 40.306 4.49902 44.574 4.49902C48.919 4.49902 53.06 6.62501 56.233 10.484C61.256 16.595 60.977 25.829 55.404 37.929C54.908 39.004 55.2 40.38 56.055 41.003C56.91 41.626 58.005 41.259 58.5 40.184C66.601 22.596 63.091 12.567 58.721 7.25098C54.876 2.57498 49.852 0 44.574 0C36.748 0 27.081 0 19.255 0C13.977 0 8.95303 2.57498 5.10903 7.25098C1.96703 11.073 0.400999 15.853 0.453999 21.46C0.624999 39.375 17.288 60.074 22.391 65.992C22.903 66.585 23.384 67.146 23.836 67.675C27.576 72.041 29.454 74.232 31.681 74.6C31.758 74.613 31.836 74.619 31.914 74.619C31.992 74.619 32.07 74.613 32.147 74.6C33.938 74.304 35.551 72.782 38.082 69.89C38.813 69.055 38.868 67.632 38.203 66.713C37.539 65.793 36.408 65.725 35.676 66.56Z" fill="#A5D3CD"/>
<path d="M57.263 44.6801C54.09 44.6801 51.517 42.1071 51.517 38.9341V37.4561C51.517 36.2141 50.716 35.2061 49.728 35.2061H42.533C41.545 35.2061 40.744 36.2141 40.744 37.4561V38.9341C40.744 42.1071 38.172 44.6801 34.998 44.6801C34.01 44.6801 33.209 45.6871 33.209 46.9291V55.9761C33.209 57.2181 34.01 58.2261 34.998 58.2261C38.172 58.2261 40.744 60.798 40.744 63.972V65.4501C40.744 66.6921 41.545 67.699 42.533 67.699H49.728C50.716 67.699 51.517 66.6921 51.517 65.4501V63.972C51.517 60.798 54.09 58.2261 57.263 58.2261C58.252 58.2261 59.052 57.2181 59.052 55.9761V46.9291C59.052 45.6871 58.252 44.6801 57.263 44.6801ZM55.474 51.4531C55.474 52.7091 54.456 53.7271 53.2 53.7271H49.728C48.74 53.7271 47.939 54.7341 47.939 55.9761V61.3921C47.939 62.3901 47.129 63.2001 46.131 63.2001C45.132 63.2001 44.322 62.3901 44.322 61.3921V55.9761C44.322 54.7341 43.521 53.7271 42.533 53.7271H39.061C37.805 53.7271 36.787 52.7091 36.787 51.4531C36.787 50.1971 37.805 49.1791 39.061 49.1791H42.533C43.521 49.1791 44.322 48.1711 44.322 46.9291V41.514C44.322 40.515 45.132 39.7051 46.131 39.7051C47.129 39.7051 47.939 40.515 47.939 41.514V46.9291C47.939 48.1711 48.74 49.1791 49.728 49.1791H53.2C54.456 49.1791 55.474 50.1971 55.474 51.4531Z" fill="#A5D3CD"/>
</svg>
