<svg width="60" height="66" viewBox="0 0 60 66" fill="none" xmlns="http://www.w3.org/2000/svg">
<path d="M23.211 34.0659H22.974V41.6929H27.976V38.8319C27.978 36.1999 25.846 34.0659 23.211 34.0659Z" fill="#A5D3CD"/>
<path d="M27.978 43.6H22.975V54.8H27.978V43.6Z" fill="#A5D3CD"/>
<path d="M16.062 38.8319V41.6929H21.068V34.0659H20.829C18.197 34.0659 16.062 36.1999 16.062 38.8319Z" fill="#A5D3CD"/>
<path d="M21.068 43.6H16.062V54.8H21.068V43.6Z" fill="#A5D3CD"/>
<path d="M7.008 65.9999H37.51C41.188 65.9999 44.184 63.0059 44.184 59.3259V34.3389C44.184 31.9359 42.983 29.1359 41.257 27.3339C52.423 26.6769 58.067 16.7799 59.565 13.6849C59.808 13.1849 59.591 12.5389 59.082 12.3129C55.814 10.8589 51.333 10.8419 49.358 10.9219C48.802 10.9439 48.544 10.5709 48.741 10.0519C50.2 6.19094 49.732 2.48192 49.378 0.77692C49.265 0.23292 48.695 -0.105028 48.156 0.0299723C35.459 3.20997 31.615 12.3439 30.473 18.2979L26.895 15.325C25.625 14.271 23.979 13.689 22.261 13.689C20.542 13.689 18.895 14.269 17.624 15.325L3.91199 26.718C1.83999 28.44 0.335999 31.6449 0.335999 34.3389V59.3259C0.334999 63.0069 3.329 65.9999 7.008 65.9999ZM41.987 7.42694C42.464 7.14694 42.505 7.21793 42.09 7.58393C38.684 10.5899 35.721 16.806 33.935 21.174L31.766 19.372C35.298 11.945 40.041 8.56794 41.987 7.42694ZM7.96002 34.3389C7.96102 33.8879 8.43797 32.8719 8.78497 32.5839L22.259 21.3879L35.734 32.5839C36.08 32.8719 36.557 33.8879 36.559 34.3389V58.3749H7.96002V34.3389Z" fill="#A5D3CD"/>
</svg>
