<svg width="78" height="50" viewBox="0 0 78 50" fill="none" xmlns="http://www.w3.org/2000/svg">
<path d="M26.683 37.298C22.064 37.298 18.225 34.6269 17.534 31.1479H13.182C11.594 31.1479 10.307 30.137 10.307 28.89C10.307 27.643 11.594 26.632 13.182 26.632H17.423V19.308H13.182C11.594 19.308 10.307 18.296 10.307 17.049C10.307 15.802 11.594 14.791 13.182 14.791H17.423V6.12695H4.661C2.087 6.12695 0 7.76696 0 9.78896V36.151C0 38.172 2.087 39.812 4.661 39.812H8.918V48.1929C8.918 49.0069 9.61 49.721 10.61 49.936C10.812 49.979 11.016 50 11.218 50C12.015 50 12.774 49.673 13.196 49.115L20.213 39.812H51.318C53.162 39.812 54.751 38.968 55.506 37.748L55.168 37.298H26.683Z" fill="#A5D3CD"/>
<path d="M73.339 0H26.683C24.109 0 22.022 1.64 22.022 3.662V30.023C22.022 32.045 24.109 33.685 26.683 33.685H57.788L64.805 42.987C65.226 43.546 65.985 43.873 66.783 43.873C66.985 43.873 67.189 43.852 67.391 43.809C68.39 43.594 69.083 42.88 69.083 42.066V33.685H73.34C75.914 33.685 78 32.045 78 30.023V3.662C78 1.64 75.914 0 73.339 0ZM64.818 25.021H35.204C33.617 25.021 32.33 24.01 32.33 22.763C32.33 21.516 33.617 20.505 35.204 20.505H64.818C66.406 20.505 67.693 21.516 67.693 22.763C67.693 24.01 66.406 25.021 64.818 25.021ZM64.818 13.18H35.204C33.617 13.18 32.33 12.169 32.33 10.922C32.33 9.675 33.617 8.664 35.204 8.664H64.818C66.406 8.664 67.693 9.675 67.693 10.922C67.693 12.169 66.406 13.18 64.818 13.18Z" fill="#A5D3CD"/>
</svg>
