<svg width="89" height="89" viewBox="0 0 89 89" fill="none" xmlns="http://www.w3.org/2000/svg">
<path d="M22.72 37.625C16.53 37.625 11.51 42.653 11.51 48.839C11.51 55.024 16.53 60.052 22.72 60.052C28.9 60.052 33.9301 55.024 33.9301 48.839C33.9301 42.653 28.9 37.625 22.72 37.625ZM22.72 55.112C19.26 55.112 16.46 52.313 16.46 48.853C16.46 45.394 19.27 42.595 22.72 42.595C26.16 42.595 28.98 45.394 28.98 48.853C28.98 52.313 26.18 55.112 22.72 55.112Z" fill="#A5D3CD"/>
<path d="M45.42 86.157C45.23 73.815 35.12 63.819 22.72 63.819C10.19 63.819 0.0100098 73.991 0.0100098 86.523C0.0100098 87.886 1.10999 89 2.48999 89H42.96H42.98C45.66 89 45.45 86.288 45.42 86.157ZM5.13 84.06C6.33 75.427 13.76 68.758 22.72 68.758C31.67 68.758 39.1101 75.413 40.3101 84.06H5.13Z" fill="#A5D3CD"/>
<path d="M63.17 0C48.93 0 37.33 11.594 37.33 25.841C37.33 31.587 39.25 37.171 42.8 41.715L39.8199 57.12C39.6299 58.117 40.07 59.128 40.92 59.685C41.7 60.169 43.08 60.066 43.71 59.582L55.85 50.612C58.25 51.33 60.7 51.682 63.14 51.682C77.39 51.682 88.99 40.088 88.99 25.841C88.99 11.594 77.42 0 63.17 0ZM63.17 46.728C60.84 46.728 58.51 46.332 56.26 45.526C55.48 45.248 54.63 45.38 53.95 45.878L45.88 51.829L47.87 41.51C48.02 40.777 47.81 40 47.33 39.429C44.08 35.647 42.29 30.81 42.29 25.826C42.29 14.291 51.6499 4.92499 63.1899 4.92499C74.7199 4.92499 84.09 14.291 84.09 25.826C84.09 37.362 74.71 46.728 63.17 46.728Z" fill="#A5D3CD"/>
<path d="M63.3199 9C63.2599 9 63.23 9 63.17 9C60.57 9 58.09 10.011 56.24 11.858C54.35 13.734 53.29 16.24 53.29 18.908C53.29 20.271 54.39 21.385 55.77 21.385C57.15 21.385 58.25 20.286 58.25 18.908C58.25 17.574 58.78 16.314 59.71 15.39C60.65 14.467 61.93 13.939 63.25 13.969C65.86 13.998 68.08 16.226 68.11 18.835C68.13 20.594 67.28 22.177 65.78 23.115C62.59 25.094 60.7 28.406 60.7 31.968C60.7 33.331 61.8 34.445 63.17 34.445C64.54 34.445 65.65 33.346 65.65 31.968C65.65 30.121 66.69 28.392 68.41 27.322C71.38 25.46 73.1299 22.28 73.0699 18.791C72.9799 13.456 68.6299 9.088 63.3199 9Z" fill="#A5D3CD"/>
</svg>
