<svg width="57" height="57" viewBox="0 0 57 57" fill="none" xmlns="http://www.w3.org/2000/svg">
<path d="M41.01 35.812L29.668 27.881V14.25C29.668 13.608 29.142 13.082 28.5 13.082C27.858 13.082 27.332 13.608 27.332 14.25V28.5C27.332 28.886 27.519 29.236 27.834 29.458L39.678 37.739C39.877 37.879 40.11 37.949 40.344 37.949C40.706 37.949 41.068 37.774 41.302 37.436C41.664 36.91 41.535 36.186 41.01 35.812Z" fill="#A5D3CD"/>
<path d="M48.637 8.36301C43.241 2.96701 36.092 0 28.5 0C20.908 0 13.759 2.96701 8.36298 8.36301C2.96698 13.759 0 20.908 0 28.5C0 36.092 2.96698 43.241 8.36298 48.637C13.759 54.033 20.908 57 28.5 57C36.092 57 43.241 54.033 48.637 48.637C54.033 43.241 57 36.092 57 28.5C57 20.908 54.033 13.759 48.637 8.36301ZM29.668 54.641V49.875C29.668 49.233 29.142 48.707 28.5 48.707C27.858 48.707 27.332 49.233 27.332 49.875V54.641C13.83 54.045 2.95501 43.17 2.35901 29.668H7.125C7.767 29.668 8.29303 29.142 8.29303 28.5C8.29303 27.858 7.767 27.332 7.125 27.332H2.35901C2.95501 13.83 13.83 2.95499 27.332 2.35899V7.125C27.332 7.767 27.858 8.293 28.5 8.293C29.142 8.293 29.668 7.767 29.668 7.125V2.35899C43.17 2.95499 54.045 13.83 54.641 27.332H49.875C49.233 27.332 48.707 27.858 48.707 28.5C48.707 29.142 49.233 29.668 49.875 29.668H54.641C54.045 43.17 43.17 54.045 29.668 54.641Z" fill="#A5D3CD"/>
</svg>
