<svg width="63" height="65" viewBox="0 0 63 65" fill="none" xmlns="http://www.w3.org/2000/svg">
<path d="M61.24 62.883H54.04V60.715C54.04 56.818 53.23 53.622 51.61 51.173C51.62 51.134 51.62 51.095 51.62 51.055V18.982C51.62 12.355 49.35 7.30899 44.88 3.98399C41.48 1.45599 36.79 0.0459989 31.65 0.0019989C31.63 0.0019989 31.62 0 31.6 0C31.57 0 31.54 0.00100708 31.5 0.00100708C31.47 0.00100708 31.43 0 31.4 0C31.38 0 31.37 0.0019989 31.36 0.0019989C26.21 0.0459989 21.52 1.45599 18.12 3.98399C13.65 7.30899 11.38 12.355 11.38 18.982V51.055C11.38 51.095 11.38 51.134 11.39 51.173C9.78001 53.623 8.95996 56.818 8.95996 60.715V62.884H1.76001C1.18001 62.884 0.709961 63.357 0.709961 63.942C0.709961 64.526 1.18001 65 1.76001 65H61.24C61.82 65 62.3 64.526 62.3 63.942C62.3 63.357 61.82 62.883 61.24 62.883ZM51.9301 62.883H37.14V48.128H42.25V52.229C41.34 52.558 40.59 53.253 40.09 54.25C39.64 55.152 39.54 56.005 39.53 56.099C39.52 56.139 39.52 56.178 39.52 56.218V59.098C39.52 59.683 39.99 60.157 40.58 60.157C41.16 60.157 41.64 59.683 41.64 59.098V56.288C41.68 55.982 42.0001 54.3 43.3101 54.139C44.6101 54.299 44.93 55.977 44.98 56.289V59.098C44.98 59.683 45.45 60.157 46.03 60.157C46.62 60.157 47.09 59.683 47.09 59.098V56.218C47.09 56.178 47.09 56.139 47.09 56.099C47.08 56.005 46.97 55.152 46.52 54.25C46.02 53.253 45.27 52.558 44.36 52.229V48.424C45.59 48.746 47.2 49.418 48.62 50.826C50.81 53.007 51.9301 56.334 51.9301 60.715V62.883ZM31.6 41.738H31.4C26.78 41.43 23.23 39.428 20.86 35.788C19.2 33.247 18.71 30.731 18.63 30.297V18.598C20.94 18.407 26.26 17.408 31.17 12.434C32.86 14.47 37.22 18.685 44.22 18.685C44.27 18.685 44.32 18.684 44.37 18.684V30.299C44.3 30.73 43.8201 33.187 42.1801 35.723C39.8101 39.404 36.25 41.428 31.6 41.738ZM31.3 43.852C31.32 43.854 31.34 43.855 31.37 43.855H31.63C31.66 43.855 31.68 43.854 31.7 43.852C32.9 43.775 34 43.594 35.01 43.335V47.07C35.01 47.11 35.02 47.149 35.02 47.187V52.644L31.5 56.443L27.99 52.645V47.07V43.335C29 43.594 30.1 43.775 31.3 43.852ZM27.99 55.761L30.72 58.719C30.92 58.936 31.21 59.059 31.5 59.059C31.8 59.059 32.08 58.936 32.28 58.72L35.02 55.758V62.884H27.99V55.761ZM19.38 5.683C22.45 3.4 26.75 2.136 31.5 2.118C36.25 2.136 40.55 3.4 43.62 5.683C47.52 8.586 49.5 13.061 49.5 18.982V48.765C46.29 46.018 42.5901 46.007 42.4301 46.011H37.13V42.804C37.13 42.748 37.12 42.693 37.12 42.639C40.51 41.237 42.66 38.897 43.96 36.869C46 33.707 46.46 30.663 46.48 30.536C46.48 30.485 46.49 30.434 46.49 30.384V17.581C46.49 17.287 46.37 17.006 46.15 16.806C45.93 16.605 45.64 16.504 45.35 16.526C44.97 16.554 44.59 16.568 44.22 16.568C36.36 16.568 32.19 10.283 32.15 10.221C31.97 9.94299 31.67 9.765 31.34 9.739C31.01 9.713 30.68 9.844 30.46 10.091C24.91 16.344 18.4001 16.524 17.6801 16.524C17.6401 16.524 17.61 16.524 17.61 16.524C17.32 16.515 17.04 16.62 16.84 16.82C16.63 17.019 16.51 17.294 16.51 17.581V30.384C16.51 30.435 16.52 30.485 16.52 30.536C16.54 30.664 17 33.707 19.04 36.869C20.34 38.897 22.49 41.237 25.88 42.64C25.88 42.693 25.87 42.748 25.87 42.804V46.011H20.58C20.41 46.011 16.71 46.019 13.5 48.765V18.982C13.5 13.061 15.48 8.587 19.38 5.683ZM20.17 54.419C21.19 54.419 22.02 55.253 22.02 56.277C22.02 57.301 21.19 58.135 20.17 58.135C19.14 58.135 18.3101 57.301 18.3101 56.277C18.3101 55.253 19.14 54.419 20.17 54.419ZM11.0699 60.715C11.0699 51.166 16.44 48.86 19.11 48.305V52.447C17.43 52.911 16.1899 54.452 16.1899 56.277C16.1899 58.469 17.97 60.251 20.17 60.251C22.36 60.251 24.14 58.469 24.14 56.277C24.14 54.452 22.9 52.911 21.22 52.447V48.128H25.87V62.883H11.0699V60.715Z" fill="#A5D3CD"/>
<path d="M23.99 24.827C24.69 24.827 25.25 24.261 25.25 23.564C25.25 22.866 24.69 22.301 23.99 22.301C23.29 22.301 22.73 22.866 22.73 23.564C22.73 24.261 23.29 24.827 23.99 24.827Z" fill="#A5D3CD"/>
<path d="M39.01 24.827C39.71 24.827 40.28 24.261 40.28 23.564C40.28 22.866 39.71 22.301 39.01 22.301C38.31 22.301 37.75 22.866 37.75 23.564C37.75 24.261 38.31 24.827 39.01 24.827Z" fill="#A5D3CD"/>
<path d="M31.3199 30.39H31.6801C32.8201 30.39 33.74 29.469 33.74 28.337C33.74 27.752 33.2601 27.278 32.6801 27.278C32.1201 27.278 31.66 27.719 31.62 28.274H31.38C31.35 27.719 30.8899 27.278 30.3199 27.278C29.7399 27.278 29.26 27.752 29.26 28.337C29.26 29.469 30.1799 30.39 31.3199 30.39Z" fill="#A5D3CD"/>
<path d="M20.17 56.935C20.53 56.935 20.8199 56.641 20.8199 56.277C20.8199 55.913 20.53 55.619 20.17 55.619C19.8 55.619 19.51 55.913 19.51 56.277C19.51 56.641 19.8 56.935 20.17 56.935Z" fill="#A5D3CD"/>
<path d="M37.9001 33.184C37.4501 32.817 36.7801 32.888 36.4101 33.344C36.4001 33.358 35.1301 34.746 31.7601 34.746C28.2601 34.746 26.56 33.295 26.47 33.221C26.04 32.832 25.37 32.865 24.98 33.295C24.59 33.727 24.6201 34.396 25.0501 34.79C25.1401 34.875 27.3701 36.862 31.7601 36.862C36.1701 36.862 37.8801 34.896 38.0601 34.672C38.4301 34.217 38.3601 33.551 37.9001 33.184Z" fill="#A5D3CD"/>
</svg>
