<svg width="72" height="50" viewBox="0 0 72 50" fill="none" xmlns="http://www.w3.org/2000/svg">
<path d="M70.01 33.854C70.012 36.721 67.649 38.975 64.639 38.978C61.629 38.98 59.262 36.73 59.26 33.863C59.257 30.997 64.627 24.645 64.627 24.645C64.627 24.645 70.008 31.193 70.01 33.854Z" fill="#A5D3CD"/>
<path fill-rule="evenodd" clip-rule="evenodd" d="M36.225 13.5301L67.972 13.5041C70.078 13.5021 71.786 15.2081 71.788 17.3131C71.789 19.4191 70.084 21.1271 67.978 21.1291H67.969C68.123 20.8291 68.207 20.5031 68.207 20.1631C68.206 18.6781 66.6 17.4761 64.621 17.4781C62.642 17.4801 61.039 18.6841 61.04 20.1691C61.04 20.5091 61.125 20.8351 61.28 21.1351L37.948 21.1541L37.95 23.0601L50.292 23.0501C52.271 23.0481 53.877 24.651 53.879 26.631V27.0891C53.881 29.0681 52.278 30.6741 50.299 30.6761L37.956 30.686L37.958 32.592L48.309 32.5841C50.289 32.5821 51.894 34.1851 51.896 36.1641V36.6231C51.898 38.6021 50.295 40.2081 48.316 40.2091L33.982 40.2211L33.984 42.1281L41.35 42.121C43.329 42.12 44.934 43.7231 44.936 45.7021V46.1611C44.938 48.1401 43.335 49.7461 41.356 49.7471L28.018 49.7581L20.673 49.764C9.337 49.773 0.139989 40.5911 0.130989 29.2551C0.123989 20.9161 5.164 13.4011 12.882 10.2421L35.963 0.79505C37.707 0.0810504 39.714 0.63704 40.842 2.14704C42.419 4.25804 41.646 7.28609 39.25 8.38209L35.478 10.1091C33.727 10.9101 34.3 13.5311 36.225 13.5301Z" fill="#A5D3CD"/>
</svg>
