<svg width="300" height="46" viewBox="0 0 300 46" fill="none" xmlns="http://www.w3.org/2000/svg">
<rect width="300" height="46" fill="white"/>
<rect x="97" y="23" width="106" height="2" rx="1" fill="#336CFB"/>
<circle cx="75" cy="23" r="14" fill="#336CFB"/>
<circle cx="75" cy="23" r="12" fill="white"/>
<path d="M75.3965 18.4219V27H74.3125V19.7754L72.127 20.5723V19.5938L75.2266 18.4219H75.3965Z" fill="#336CFB"/>
<circle cx="225" cy="24" r="14" fill="#C7C8CB"/>
<circle cx="225" cy="24" r="12" fill="white"/>
<path d="M228.424 27.1094V28H222.84V27.2207L225.635 24.1094C225.979 23.7266 226.244 23.4023 226.432 23.1367C226.623 22.8672 226.756 22.627 226.83 22.416C226.908 22.2012 226.947 21.9824 226.947 21.7598C226.947 21.4785 226.889 21.2246 226.771 20.998C226.658 20.7676 226.49 20.584 226.268 20.4473C226.045 20.3105 225.775 20.2422 225.459 20.2422C225.08 20.2422 224.764 20.3164 224.51 20.4648C224.26 20.6094 224.072 20.8125 223.947 21.0742C223.822 21.3359 223.76 21.6367 223.76 21.9766H222.676C222.676 21.4961 222.781 21.0566 222.992 20.6582C223.203 20.2598 223.516 19.9434 223.93 19.709C224.344 19.4707 224.854 19.3516 225.459 19.3516C225.998 19.3516 226.459 19.4473 226.842 19.6387C227.225 19.8262 227.518 20.0918 227.721 20.4355C227.928 20.7754 228.031 21.1738 228.031 21.6309C228.031 21.8809 227.988 22.1348 227.902 22.3926C227.82 22.6465 227.705 22.9004 227.557 23.1543C227.412 23.4082 227.242 23.6582 227.047 23.9043C226.855 24.1504 226.65 24.3926 226.432 24.6309L224.146 27.1094H228.424Z" fill="#C7C8CB"/>
</svg>
