<svg width="177" height="121" viewBox="0 0 177 121" fill="none" xmlns="http://www.w3.org/2000/svg">
<path d="M129.337 3.87786C129.046 2.63986 128.273 1.56786 127.191 0.898859C126.109 0.229859 124.805 0.0188766 123.567 0.310877L3.69601 28.5919C2.45701 28.8839 1.386 29.6559 0.717002 30.7379C0.0480019 31.8209 -0.164018 33.1249 0.127982 34.3629L19.653 117.12C20.174 119.328 22.144 120.817 24.318 120.817C24.683 120.817 25.054 120.775 25.424 120.688L145.295 92.4079C146.533 92.1149 147.604 91.3429 148.274 90.2609C148.943 89.1789 149.154 87.8749 148.862 86.6369L129.337 3.87786ZM129.934 48.1929L109.399 36.2649L122.52 16.7659L129.934 48.1929ZM11.987 42.8439L32.44 54.4219L19.402 74.2699L11.987 42.8439ZM17.817 35.1179L113.852 12.4609L76.32 68.2369L17.817 35.1179ZM27.89 110.248L22.435 87.1279L40.808 59.1589L75.458 78.7739C76.203 79.1949 77.015 79.3969 77.818 79.3969C79.367 79.3969 80.88 78.6469 81.801 77.2769L104.031 44.2419L132.967 61.0499L138.422 84.1699L27.89 110.248Z" fill="#3D6889" fill-opacity="0.1"/>
<path d="M172.203 3.40283H142.063C139.413 3.40283 137.266 5.55083 137.266 8.19983C137.266 10.8498 139.413 12.9978 142.063 12.9978H172.203C174.853 12.9978 177 10.8498 177 8.19983C177 5.55083 174.853 3.40283 172.203 3.40283Z" fill="#3D6889" fill-opacity="0.1"/>
<path d="M167.137 27.8359H147.128C144.479 27.8359 142.331 29.9839 142.331 32.6339C142.331 35.2829 144.479 37.4309 147.128 37.4309H167.137C169.787 37.4309 171.935 35.2829 171.935 32.6339C171.935 29.9839 169.787 27.8359 167.137 27.8359Z" fill="#3D6889" fill-opacity="0.1"/>
<path d="M162.335 52.2698H151.931C149.281 52.2698 147.134 54.4178 147.134 57.0668C147.134 59.7158 149.281 61.8638 151.931 61.8638H162.335C164.985 61.8638 167.132 59.7158 167.132 57.0668C167.132 54.4178 164.985 52.2698 162.335 52.2698Z" fill="#3D6889" fill-opacity="0.1"/>
</svg>
