<svg width="165" height="113" viewBox="0 0 165 113" fill="none" xmlns="http://www.w3.org/2000/svg">
<path d="M161.005 0.868932C158.547 -0.430068 155.571 -0.263047 153.275 1.30295L112.826 28.8819V7.49994C112.826 3.35794 109.468 -5.62686e-05 105.326 -5.62686e-05H7.5C3.358 -5.62686e-05 0 3.35794 0 7.49994V105.326C0 109.468 3.358 112.826 7.5 112.826H105.326C109.468 112.826 112.826 109.468 112.826 105.326V83.945L153.275 111.523C154.544 112.388 156.02 112.827 157.501 112.827C158.701 112.827 159.904 112.539 161.005 111.958C163.462 110.659 165 108.107 165 105.327V7.49994C165 4.71994 163.462 2.16793 161.005 0.868932ZM97.826 97.8259H15V14.9999H97.826V43.0729V69.7529V97.8259ZM150 91.135L112.826 65.79V47.0369L150 21.691V91.135Z" fill="#1E62A0" fill-opacity="0.13"/>
</svg>
