<svg width="100" height="130" viewBox="0 0 100 130" fill="none" xmlns="http://www.w3.org/2000/svg">
<path d="M98.22 24.832L75.1899 1.35501C74.3399 0.489011 73.18 0 71.96 0H35.47H31.8199H5.01001C2.51001 0 0.47998 2.02499 0.47998 4.51999C0.47998 7.01499 2.51001 9.039 5.01001 9.039H31.8199H35.47H67.4399L67.45 28.654C67.45 31.151 69.47 33.176 71.97 33.176H90.47V120.961H10.1V21.21C10.1 18.713 8.06995 16.688 5.56995 16.688C3.07995 16.688 1.05005 18.713 1.05005 21.21V125.48C1.05005 127.977 3.07995 130 5.56995 130H94.99C97.49 130 99.52 127.975 99.52 125.48V27.999C99.51 26.815 99.05 25.678 98.22 24.832ZM76.49 24.134V15.586L84.87 24.134H76.49Z" fill="#4681AF" fill-opacity="0.19"/>
</svg>
