<svg width="167" height="129" viewBox="0 0 167 129" fill="none" xmlns="http://www.w3.org/2000/svg">
<path d="M47.5877 51.0462C48.5441 67.3912 62.575 79.8698 78.9201 78.9134C95.2651 77.9569 107.744 63.927 106.787 47.582C105.831 31.2359 91.8009 18.7572 75.4559 19.7137C59.1109 20.6701 46.6311 34.7001 47.5877 51.0462ZM78.7607 31.4416C78.8652 33.2276 78.8672 33.2615 80.6692 33.4326C82.0549 33.5578 83.3838 33.8937 84.6858 34.3685C85.3907 34.6377 85.6943 35.1018 85.5319 35.8696C85.2877 36.9868 85.0426 38.103 84.7635 39.2223C84.4803 40.2726 84.1789 40.4284 83.1554 40.0055C81.1076 39.1607 78.989 38.871 76.8338 39.1353C76.2518 39.2035 75.7058 39.3045 75.1708 39.5772C73.3302 40.5114 73.1443 42.6248 74.8339 43.8351C75.6967 44.4388 76.6523 44.8657 77.6377 45.2218C79.3601 45.8102 81.0834 46.3985 82.7468 47.1616C87.9939 49.6804 89.7413 55.9871 86.4236 60.5227C85.2112 62.1783 83.5904 63.342 81.6639 63.9716C80.8194 64.2614 80.4672 64.7308 80.5544 65.6212C80.6386 66.4777 80.6569 67.3722 80.7071 68.2307C80.7533 69.0204 80.3651 69.4568 79.6094 69.501C78.684 69.5892 77.7227 69.6455 76.7933 69.6658C75.9697 69.714 75.5642 69.255 75.481 68.4334C75.4428 67.7805 75.4067 67.1626 75.3346 66.5127C75.2521 65.1041 75.1793 65.0402 73.8275 64.912C72.0604 64.7399 70.3542 64.426 68.7297 63.7638C67.4576 63.2172 67.3028 62.9167 67.5698 61.5918C67.7881 60.6144 68.0043 59.6021 68.2226 58.6247C68.4997 57.4715 68.8011 57.3156 69.8636 57.8054C71.6688 58.6293 73.5877 59.0339 75.5245 59.162C76.8053 59.2593 78.0332 59.0492 79.17 58.4658C81.2781 57.3778 81.4748 54.851 79.5655 53.4472C78.9175 52.9682 78.1745 52.6321 77.3987 52.3329C75.4278 51.6218 73.398 51.0854 71.5478 50.0918C68.5263 48.5106 66.5319 46.2162 66.5285 42.6323C66.534 38.6011 68.6535 35.9618 72.2837 34.405C73.763 33.7675 73.7989 33.7995 73.7045 32.1863C73.6723 31.6362 73.6422 31.1211 73.6101 30.572C73.5747 29.3681 73.7683 29.1504 74.9682 29.0451C75.3455 29.023 75.7239 29.0009 76.0673 28.9808C78.612 28.901 78.612 28.901 78.7607 31.4416Z" fill="#1E62A0" fill-opacity="0.19"/>
<path d="M120.357 59.0479C124.897 59.0479 128.578 55.367 128.578 50.827C128.578 46.287 124.897 42.606 120.357 42.606C115.816 42.606 112.136 46.287 112.136 50.827C112.136 55.367 115.816 59.0479 120.357 59.0479Z" fill="#1E62A0" fill-opacity="0.19"/>
<path d="M34.054 59.0479C38.594 59.0479 42.275 55.367 42.275 50.827C42.275 46.287 38.594 42.606 34.054 42.606C29.514 42.606 25.833 46.287 25.833 50.827C25.833 55.367 29.514 59.0479 34.054 59.0479Z" fill="#1E62A0" fill-opacity="0.19"/>
<path d="M142.715 0.950928H13.553C6.08801 0.950928 0 7.03893 0 14.5029V84.1929C0 91.6569 6.08801 97.7449 13.553 97.7449H107.492V93.3079C107.492 90.6589 108.283 88.2169 109.625 86.1879H28.55C28.619 85.6369 28.653 85.053 28.653 84.502C28.653 76.935 22.53 70.778 14.929 70.778C13.759 70.778 12.624 70.9149 11.523 71.1899V29.1219C12.624 29.3969 13.759 29.5349 14.929 29.5349C22.496 29.5349 28.653 23.4119 28.653 15.8099C28.653 14.6409 28.516 13.5399 28.24 12.4739H128.819C128.681 13.2989 128.578 14.1249 128.578 14.9849C128.578 22.5519 134.701 28.7089 142.303 28.7089C143.128 28.7089 143.919 28.6409 144.71 28.5029V53.132C148.941 53.648 152.863 55.0919 156.268 57.2939V14.4689C156.268 7.00493 150.18 0.950928 142.715 0.950928Z" fill="#1E62A0" fill-opacity="0.19"/>
<path d="M141.271 60.5959C130.091 60.5959 121.01 69.677 121.01 80.856V87.9069H120.529C117.571 87.9069 115.197 90.315 115.197 93.239V122.718C115.197 125.676 117.605 128.049 120.529 128.049H161.668C164.627 128.049 167 125.642 167 122.718V93.239C167 90.281 164.592 87.9069 161.668 87.9069H161.531V80.856C161.565 69.711 152.45 60.5959 141.271 60.5959ZM144.298 109.337C143.885 109.647 143.782 109.922 143.782 110.403C143.782 112.57 143.782 114.738 143.782 116.905C143.816 117.799 143.369 118.693 142.578 119.106C140.686 120.069 138.794 118.728 138.794 116.939C138.794 114.772 138.794 112.605 138.794 110.438C138.794 109.991 138.691 109.715 138.312 109.406C136.352 107.961 135.698 105.485 136.696 103.318C137.659 101.185 139.963 99.9809 142.165 100.394C144.607 100.875 146.293 102.87 146.327 105.278C146.327 106.964 145.639 108.34 144.298 109.337ZM152.691 87.9069H129.885V80.856C129.885 74.561 135.01 69.4699 141.271 69.4699C147.565 69.4699 152.656 74.596 152.656 80.856V87.9069H152.691Z" fill="#1E62A0" fill-opacity="0.19"/>
</svg>
