<svg width="144" height="127" viewBox="0 0 144 127" fill="none" xmlns="http://www.w3.org/2000/svg">
<path d="M144 0H0V33.867H8.47101V127H135.529V33.867H144V0ZM127.059 118.533H16.941V33.867H127.059V118.533ZM135.529 25.4H8.47101V8.46698H135.529V25.4ZM50.824 76.2H93.312C102.655 76.2 110.253 68.605 110.253 59.267C110.253 49.928 102.655 42.333 93.312 42.333H50.824C41.48 42.333 33.882 49.928 33.882 59.267C33.882 68.605 41.48 76.2 50.824 76.2ZM50.824 50.8H93.312C97.988 50.8 101.783 54.593 101.783 59.267C101.783 63.94 97.988 67.733 93.312 67.733H50.824C46.148 67.733 42.353 63.94 42.353 59.267C42.353 54.593 46.148 50.8 50.824 50.8Z" fill="#3D6889" fill-opacity="0.1"/>
</svg>
