<svg width="36" height="36" viewBox="0 0 36 36" fill="none" xmlns="http://www.w3.org/2000/svg">
<path d="M35.5463 33.4213L25.2173 23.085C27.2536 20.643 28.4783 17.5222 28.4783 14.1136C28.4783 6.33743 22.0965 0.0146484 14.2465 0.0146484C6.39656 0.0146484 0 6.3448 0 14.121C0 21.8972 6.3818 28.22 14.2318 28.22C17.5666 28.22 20.6357 27.0764 23.0704 25.1656L33.4362 35.5314C34.0412 36.1364 34.9413 36.1364 35.5463 35.5314C36.1512 34.9264 36.1512 34.0263 35.5463 33.4213ZM3.0249 14.121C3.0249 8.01219 8.05656 3.04693 14.2318 3.04693C20.407 3.04693 25.4387 8.01219 25.4387 14.121C25.4387 20.2298 20.407 25.1951 14.2318 25.1951C8.05656 25.1951 3.0249 20.2225 3.0249 14.121Z" fill="black"/>
</svg>
