<svg width="300" height="46" viewBox="0 0 300 46" fill="none" xmlns="http://www.w3.org/2000/svg">
<rect width="300" height="46" fill="white"/>
<rect x="55" y="22" width="76" height="2" rx="1" fill="#15E844"/>
<circle cx="150" cy="23" r="14" fill="#336CFB"/>
<path d="M162 23C162 29.6274 156.627 35 150 35C143.373 35 138 29.6274 138 23C138 16.3726 143.373 11 150 11C156.627 11 162 16.3726 162 23Z" fill="white"/>
<path d="M153.424 26.1094V27H147.84V26.2207L150.635 23.1094C150.979 22.7266 151.244 22.4023 151.432 22.1367C151.623 21.8672 151.756 21.627 151.83 21.416C151.908 21.2012 151.947 20.9824 151.947 20.7598C151.947 20.4785 151.889 20.2246 151.771 19.998C151.658 19.7676 151.49 19.584 151.268 19.4473C151.045 19.3105 150.775 19.2422 150.459 19.2422C150.08 19.2422 149.764 19.3164 149.51 19.4648C149.26 19.6094 149.072 19.8125 148.947 20.0742C148.822 20.3359 148.76 20.6367 148.76 20.9766H147.676C147.676 20.4961 147.781 20.0566 147.992 19.6582C148.203 19.2598 148.516 18.9434 148.93 18.709C149.344 18.4707 149.854 18.3516 150.459 18.3516C150.998 18.3516 151.459 18.4473 151.842 18.6387C152.225 18.8262 152.518 19.0918 152.721 19.4355C152.928 19.7754 153.031 20.1738 153.031 20.6309C153.031 20.8809 152.988 21.1348 152.902 21.3926C152.82 21.6465 152.705 21.9004 152.557 22.1543C152.412 22.4082 152.242 22.6582 152.047 22.9043C151.855 23.1504 151.65 23.3926 151.432 23.6309L149.146 26.1094H153.424Z" fill="#336CFB"/>
<rect x="168" y="22" width="76" height="2" rx="1" fill="#336CFB"/>
<circle cx="263" cy="23" r="14" fill="#C7C8CB"/>
<circle cx="263" cy="23" r="12" fill="white"/>
<path d="M262.416 21.2012H263.189C263.568 21.2012 263.881 21.1387 264.127 21.0137C264.377 20.8848 264.562 20.7109 264.684 20.4922C264.809 20.2695 264.871 20.0195 264.871 19.7422C264.871 19.4141 264.816 19.1387 264.707 18.916C264.598 18.6934 264.434 18.5254 264.215 18.4121C263.996 18.2988 263.719 18.2422 263.383 18.2422C263.078 18.2422 262.809 18.3027 262.574 18.4238C262.344 18.541 262.162 18.709 262.029 18.9277C261.9 19.1465 261.836 19.4043 261.836 19.7012H260.752C260.752 19.2676 260.861 18.873 261.08 18.5176C261.299 18.1621 261.605 17.8789 262 17.668C262.398 17.457 262.859 17.3516 263.383 17.3516C263.898 17.3516 264.35 17.4434 264.736 17.627C265.123 17.8066 265.424 18.0762 265.639 18.4355C265.854 18.791 265.961 19.2344 265.961 19.7656C265.961 19.9805 265.91 20.2109 265.809 20.457C265.711 20.6992 265.557 20.9258 265.346 21.1367C265.139 21.3477 264.869 21.5215 264.537 21.6582C264.205 21.791 263.807 21.8574 263.342 21.8574H262.416V21.2012ZM262.416 22.0918V21.4414H263.342C263.885 21.4414 264.334 21.5059 264.689 21.6348C265.045 21.7637 265.324 21.9355 265.527 22.1504C265.734 22.3652 265.879 22.6016 265.961 22.8594C266.047 23.1133 266.09 23.3672 266.09 23.6211C266.09 24.0195 266.021 24.373 265.885 24.6816C265.752 24.9902 265.562 25.252 265.316 25.4668C265.074 25.6816 264.789 25.8438 264.461 25.9531C264.133 26.0625 263.775 26.1172 263.389 26.1172C263.018 26.1172 262.668 26.0645 262.34 25.959C262.016 25.8535 261.729 25.7012 261.479 25.502C261.229 25.2988 261.033 25.0508 260.893 24.7578C260.752 24.4609 260.682 24.123 260.682 23.7441H261.766C261.766 24.041 261.83 24.3008 261.959 24.5234C262.092 24.7461 262.279 24.9199 262.521 25.0449C262.768 25.166 263.057 25.2266 263.389 25.2266C263.721 25.2266 264.006 25.1699 264.244 25.0566C264.486 24.9395 264.672 24.7637 264.801 24.5293C264.934 24.2949 265 24 265 23.6445C265 23.2891 264.926 22.998 264.777 22.7715C264.629 22.541 264.418 22.3711 264.145 22.2617C263.875 22.1484 263.557 22.0918 263.189 22.0918H262.416Z" fill="#C7C8CB"/>
<circle cx="37" cy="23" r="14" fill="#15E844"/>
<circle cx="37" cy="23" r="12" fill="white"/>
<path d="M44.5606 20.6056L36.6475 28.5182C36.0615 29.1043 35.111 29.1043 34.5245 28.5182L30.4396 24.4331C29.8535 23.847 29.8535 22.8963 30.4396 22.3101C31.026 21.7238 31.9764 21.7238 32.5625 22.3099L35.5863 25.3337L42.4375 18.4825C43.0238 17.8962 43.9743 17.8967 44.5604 18.4825C45.1465 19.0687 45.1465 20.0191 44.5606 20.6056Z" fill="#5EEF7F"/>
</svg>
