<svg width="300" height="46" viewBox="0 0 300 46" fill="none" xmlns="http://www.w3.org/2000/svg">
<rect width="300" height="46" fill="white"/>
<rect x="55" y="22" width="76" height="2" rx="1" fill="#15E844"/>
<rect x="168" y="22" width="76" height="2" rx="1" fill="#15E844"/>
<circle cx="263" cy="23" r="14" fill="#336CFB"/>
<circle cx="263" cy="23" r="12" fill="white"/>
<path d="M262.416 22.2012H263.189C263.568 22.2012 263.881 22.1387 264.127 22.0137C264.377 21.8848 264.562 21.7109 264.684 21.4922C264.809 21.2695 264.871 21.0195 264.871 20.7422C264.871 20.4141 264.816 20.1387 264.707 19.916C264.598 19.6934 264.434 19.5254 264.215 19.4121C263.996 19.2988 263.719 19.2422 263.383 19.2422C263.078 19.2422 262.809 19.3027 262.574 19.4238C262.344 19.541 262.162 19.709 262.029 19.9277C261.9 20.1465 261.836 20.4043 261.836 20.7012H260.752C260.752 20.2676 260.861 19.873 261.08 19.5176C261.299 19.1621 261.605 18.8789 262 18.668C262.398 18.457 262.859 18.3516 263.383 18.3516C263.898 18.3516 264.35 18.4434 264.736 18.627C265.123 18.8066 265.424 19.0762 265.639 19.4355C265.854 19.791 265.961 20.2344 265.961 20.7656C265.961 20.9805 265.91 21.2109 265.809 21.457C265.711 21.6992 265.557 21.9258 265.346 22.1367C265.139 22.3477 264.869 22.5215 264.537 22.6582C264.205 22.791 263.807 22.8574 263.342 22.8574H262.416V22.2012ZM262.416 23.0918V22.4414H263.342C263.885 22.4414 264.334 22.5059 264.689 22.6348C265.045 22.7637 265.324 22.9355 265.527 23.1504C265.734 23.3652 265.879 23.6016 265.961 23.8594C266.047 24.1133 266.09 24.3672 266.09 24.6211C266.09 25.0195 266.021 25.373 265.885 25.6816C265.752 25.9902 265.562 26.252 265.316 26.4668C265.074 26.6816 264.789 26.8438 264.461 26.9531C264.133 27.0625 263.775 27.1172 263.389 27.1172C263.018 27.1172 262.668 27.0645 262.34 26.959C262.016 26.8535 261.729 26.7012 261.479 26.502C261.229 26.2988 261.033 26.0508 260.893 25.7578C260.752 25.4609 260.682 25.123 260.682 24.7441H261.766C261.766 25.041 261.83 25.3008 261.959 25.5234C262.092 25.7461 262.279 25.9199 262.521 26.0449C262.768 26.166 263.057 26.2266 263.389 26.2266C263.721 26.2266 264.006 26.1699 264.244 26.0566C264.486 25.9395 264.672 25.7637 264.801 25.5293C264.934 25.2949 265 25 265 24.6445C265 24.2891 264.926 23.998 264.777 23.7715C264.629 23.541 264.418 23.3711 264.145 23.2617C263.875 23.1484 263.557 23.0918 263.189 23.0918H262.416Z" fill="#336CFB"/>
<circle cx="37" cy="23" r="14" fill="#15E844"/>
<circle cx="37" cy="23" r="12" fill="white"/>
<path d="M43.5606 20.5626L35.6475 28.4752C35.0615 29.0613 34.111 29.0613 33.5245 28.4752L29.4396 24.3901C28.8535 23.804 28.8535 22.8533 29.4396 22.2671C30.026 21.6808 30.9764 21.6808 31.5625 22.2669L34.5863 25.2908L41.4375 18.4396C42.0238 17.8533 42.9743 17.8537 43.5604 18.4396C44.1465 19.0258 44.1465 19.9761 43.5606 20.5626Z" fill="#5EEF7F"/>
<circle cx="150" cy="23" r="14" fill="#15E844"/>
<circle cx="150" cy="23" r="12" fill="white"/>
<path d="M156.561 20.5626L148.648 28.4752C148.062 29.0613 147.111 29.0613 146.524 28.4752L142.44 24.3901C141.853 23.804 141.853 22.8533 142.44 22.2671C143.026 21.6808 143.976 21.6808 144.562 22.2669L147.586 25.2908L154.437 18.4396C155.024 17.8533 155.974 17.8537 156.56 18.4396C157.147 19.0258 157.147 19.9761 156.561 20.5626Z" fill="#5EEF7F"/>
</svg>
